<svg width="232" height="52" viewBox="0 0 232 52" fill="none" xmlns="http://www.w3.org/2000/svg">
<g clip-path="url(#clip0_32_16771)">
<path d="M0 11.894C0 19.0493 5.44005 23.5016 11.3981 23.5016C15.5103 23.5016 17.5505 21.3707 17.5505 21.3707H17.6152C17.6152 21.3707 17.5828 21.4981 17.5828 21.6888V21.7525C17.5828 22.5156 18.1981 23.1199 19.3638 23.1199H20.4324C21.5981 23.1199 22.2131 22.5156 22.2131 21.3707V12.0209C22.2131 10.8761 21.5981 10.2718 20.4324 10.2718H15.7048C14.5391 10.2718 13.9238 10.8761 13.9238 12.0209V13.2613C13.9238 14.4063 14.5391 15.0103 15.7048 15.0103H17.1941V16.5687C17.1941 16.5687 15.737 18.4132 12.4342 18.4132C8.90481 18.4132 5.86114 15.7737 5.86114 11.5759C5.86114 8.14117 7.90094 5.08819 12.5314 5.08819C14.5391 5.08819 15.7694 5.66068 16.8382 6.20131C17.9067 6.74181 18.6837 6.67822 19.2991 5.72427L20.1409 4.42049C20.7562 3.43444 20.6589 2.70302 19.6875 2.00334C18.7486 1.33564 15.8666 0 12.1753 0C5.08372 0 0 4.96112 0 11.894ZM24.9333 21.3707C24.9333 22.5156 25.5485 23.1199 26.7143 23.1199H28.7543C29.9198 23.1199 30.5351 22.5156 30.5351 21.3707V16.7595C30.5351 14.0882 31.8305 11.8621 34.4856 11.8621C35.6513 11.8621 36.2665 11.2579 36.2665 10.1129V8.33196C36.2665 7.18723 35.8779 6.58288 34.7446 6.58288C32.6399 6.58288 30.8589 8.84086 30.3086 10.5265H30.2437C30.2437 10.5265 30.3086 10.0492 30.3086 9.50868V8.49101C30.3086 7.34616 29.6932 6.74181 28.5274 6.74181H26.7143C25.5485 6.74181 24.9333 7.34616 24.9333 8.49101V21.3707ZM37.3676 26.1728L36.9464 27.0953C36.4932 28.1128 36.7522 29.035 37.8207 29.3848C38.4684 29.6077 39.2779 29.7983 40.1521 29.7983C42.8073 29.7983 45.7217 28.5262 47.1139 24.8691L53.2015 8.7454C53.6549 7.53683 53.072 6.74181 51.7767 6.74181H49.4131C48.3445 6.74181 47.6968 7.21885 47.4055 8.23663L45.7217 14.3745C45.495 15.2647 45.1712 16.8231 45.1712 16.8231H45.1063C45.1063 16.8231 44.7826 15.1695 44.491 14.279L42.5159 8.17303C42.192 7.21885 41.5446 6.74181 40.476 6.74181H37.9501C36.5902 6.74181 36.0397 7.56869 36.5902 8.77726L42.7749 22.8018L42.451 23.565C42.0627 24.5192 41.156 25.3142 40.1521 25.3142C39.7635 25.3142 39.4397 25.2188 39.1807 25.1553C38.5008 25.028 37.8207 25.1872 37.3676 26.1728ZM55.2739 21.3707C55.2739 22.5156 55.8891 23.1199 57.0549 23.1199H59.095C60.2605 23.1199 60.8758 22.5156 60.8758 21.3707V15.7101C60.8758 13.3885 62.0091 11.3533 64.5023 11.3533C65.7329 11.3533 66.3483 11.9892 66.3483 13.5157V21.3707C66.3483 22.5156 66.9635 23.1199 68.1289 23.1199H70.169C71.3348 23.1199 71.95 22.5156 71.95 21.3707V12.4979C71.95 7.88679 69.3272 6.36036 65.9595 6.36036C63.013 6.36036 61.4261 7.91853 60.6492 9.19057H60.5843C60.5843 9.19057 60.6166 8.93619 60.6166 8.77726V8.49101C60.6166 7.34616 60.0338 6.74181 58.8681 6.74181H57.0549C55.8891 6.74181 55.2739 7.34616 55.2739 8.49101V21.3707ZM83.7041 21.3707C83.7041 22.5156 84.3194 23.1199 85.4851 23.1199H87.5897C88.7555 23.1199 89.3708 22.5156 89.3708 21.3707V2.13066C89.3708 0.985681 88.7555 0.381455 87.5897 0.381455H85.4851C84.3194 0.381455 83.7041 0.985681 83.7041 2.13066V21.3707ZM92.8678 21.3707C92.8678 22.5156 93.483 23.1199 94.6487 23.1199H96.6889C97.8543 23.1199 98.4697 22.5156 98.4697 21.3707V15.7101C98.4697 13.3885 99.6029 11.3533 102.096 11.3533C103.327 11.3533 103.942 11.9892 103.942 13.5157V21.3707C103.942 22.5156 104.557 23.1199 105.723 23.1199H107.763C108.929 23.1199 109.544 22.5156 109.544 21.3707V12.4979C109.544 7.88679 106.921 6.36036 103.553 6.36036C100.607 6.36036 99.0201 7.91853 98.243 9.19057H98.1781C98.1781 9.19057 98.2106 8.93619 98.2106 8.77726V8.49101C98.2106 7.34616 97.6276 6.74181 96.4619 6.74181H94.6487C93.483 6.74181 92.8678 7.34616 92.8678 8.49101V21.3707ZM111.746 14.9151C111.746 20.0033 114.725 23.5016 119.258 23.5016C122.69 23.5016 124.083 21.1163 124.083 21.1163H124.148C124.148 21.1163 124.115 21.2754 124.115 21.3389V21.5298C124.115 22.5792 124.73 23.1199 125.896 23.1199H127.58C128.746 23.1199 129.361 22.5156 129.361 21.3707V2.13066C129.361 0.985681 128.746 0.381455 127.58 0.381455H125.54C124.374 0.381455 123.759 0.985681 123.759 2.13066V7.25071C123.759 7.66414 123.791 7.98224 123.791 7.98224H123.727C123.727 7.98224 122.723 6.36036 119.355 6.36036C114.919 6.36036 111.746 9.73108 111.746 14.9151ZM117.38 14.9151C117.38 12.4026 118.902 11.0034 120.65 11.0034C122.852 11.0034 123.921 12.9432 123.921 14.9151C123.921 17.7453 122.334 18.9538 120.65 18.9538C118.708 18.9538 117.38 17.3637 117.38 14.9151ZM131.757 14.9151C131.757 19.2719 134.963 23.5016 140.921 23.5016C143.479 23.5016 145.454 22.7063 146.652 22.0386C147.624 21.4981 147.786 20.6394 147.267 19.6536L146.814 18.8268C146.264 17.8089 145.487 17.6818 144.418 18.1587C143.576 18.5721 142.507 18.922 141.374 18.922C139.593 18.922 137.909 17.9998 137.488 15.9963H146.264C147.365 15.9963 148.142 15.0422 148.142 14.1836C148.142 9.7948 145.389 6.36036 140.435 6.36036C135.06 6.36036 131.757 10.1129 131.757 14.9151ZM137.618 12.8478C137.909 11.544 138.687 10.3991 140.306 10.3991C141.73 10.3991 142.605 11.5121 142.605 12.8478H137.618ZM149.891 21.0211C149.113 22.1975 149.631 23.1199 151.088 23.1199H153.258C154.229 23.1199 154.877 22.7382 155.363 21.8794L156.658 19.4308C156.82 19.1445 157.046 18.6039 157.046 18.6039H157.111C157.111 18.6039 157.338 19.1445 157.5 19.4308L158.828 21.8794C159.313 22.7382 159.961 23.1199 160.932 23.1199H163.102C164.559 23.1199 165.077 22.1975 164.3 21.0211L160.414 15.0103L164.397 8.84086C165.174 7.66414 164.656 6.74181 163.199 6.74181H160.9C159.896 6.74181 159.248 7.15537 158.795 8.0141L157.629 10.3991C157.435 10.8126 157.111 11.4804 157.111 11.4804H157.046C157.046 11.4804 156.755 10.8126 156.528 10.3991L155.363 8.0141C154.91 7.15537 154.262 6.74181 153.258 6.74181H150.959C149.502 6.74181 148.984 7.66414 149.761 8.84086L153.776 15.0103L149.891 21.0211Z" fill="#660066"/>
<path d="M30.1858 50.4677C30.1858 51.2241 30.5707 51.6022 31.3132 51.6022H32.5784C33.3208 51.6022 33.706 51.2241 33.706 50.4677V33.5593C33.706 32.8298 33.3208 32.4248 32.5784 32.4248H31.3132C30.5707 32.4248 30.1858 32.8298 30.1858 33.5593V50.4677ZM37.5011 50.4677C37.5011 51.2241 37.8864 51.6022 38.6287 51.6022H39.8388C40.5815 51.6022 40.9663 51.2241 40.9663 50.4677V45.1469C40.9663 42.6616 42.5341 40.6359 45.0092 40.6359C46.7694 40.6359 47.2095 41.7704 47.2095 43.445V50.4677C47.2095 51.2241 47.6219 51.6022 48.3645 51.6022H49.5471C50.3171 51.6022 50.7023 51.2241 50.7023 50.4677V42.7428C50.7023 39.0964 48.9146 37.5029 45.8067 37.5029C42.9741 37.5029 41.434 39.2585 40.8289 40.4199H40.7739C40.7739 40.4199 40.8289 40.0958 40.8289 39.7987V38.9613C40.8289 38.232 40.4438 37.8269 39.7015 37.8269H38.6287C37.8864 37.8269 37.5011 38.232 37.5011 38.9613V50.4677ZM55.1025 35.4768H56.3125C57.0552 35.4768 57.4676 35.0988 57.4676 34.3696V33.5593C57.4676 32.8298 57.0552 32.4248 56.3125 32.4248H55.1025C54.36 32.4248 53.9749 32.8298 53.9749 33.5593V34.3696C53.9749 35.0988 54.36 35.4768 55.1025 35.4768ZM53.9749 50.4677C53.9749 51.2241 54.36 51.6022 55.1025 51.6022H56.3125C57.0552 51.6022 57.4402 51.2241 57.4402 50.4677V38.9613C57.4402 38.232 57.0552 37.8269 56.3125 37.8269H55.1025C54.36 37.8269 53.9749 38.232 53.9749 38.9613V50.4677ZM61.6756 46.6864C61.6756 50.4137 64.6459 51.7373 67.1486 51.7373C68.1112 51.7373 68.5785 51.4131 68.5785 50.6028V49.7655C68.5785 49.0091 68.2762 48.7393 67.4234 48.6581C66.461 48.5499 65.1683 48.1448 65.1683 46.0919V40.7441H67.231C67.9462 40.7441 68.3585 40.3658 68.3585 39.6096V39.1504C68.3585 38.421 67.9462 38.0159 67.2035 38.0159H65.1683V35.2069C65.1683 34.4775 64.7557 34.0724 64.0133 34.0724H62.9131C62.1706 34.0724 61.7582 34.4775 61.7582 35.2069V38.0159H60.9607C60.1905 38.0159 59.8056 38.421 59.8056 39.1504V39.6096C59.8056 40.3658 60.1905 40.7441 60.9332 40.7441H61.6756V46.6864ZM72.0439 35.4768H73.2538C73.9965 35.4768 74.4089 35.0988 74.4089 34.3696V33.5593C74.4089 32.8298 73.9965 32.4248 73.2538 32.4248H72.0439C71.3014 32.4248 70.9162 32.8298 70.9162 33.5593V34.3696C70.9162 35.0988 71.3014 35.4768 72.0439 35.4768ZM70.9162 50.4677C70.9162 51.2241 71.3014 51.6022 72.0439 51.6022H73.2538C73.9965 51.6022 74.3815 51.2241 74.3815 50.4677V38.9613C74.3815 38.232 73.9965 37.8269 73.2538 37.8269H72.0439C71.3014 37.8269 70.9162 38.232 70.9162 38.9613V50.4677ZM76.7742 47.7937C76.7742 50.3057 78.8643 51.9263 81.4222 51.9263C84.5023 51.9263 85.8225 49.3333 85.8225 49.3333H85.8775C85.8775 49.3333 85.8225 49.5493 85.8225 49.9276V50.4677C85.8225 51.2241 86.2075 51.6022 86.95 51.6022H87.8851C88.6551 51.6022 89.0403 51.2241 89.0403 50.4677V42.9857C89.0403 39.5014 86.8676 37.5029 83.2373 37.5029C81.1472 37.5029 79.5522 38.178 78.6444 38.6372C77.9843 38.9884 77.8746 39.5284 78.2045 40.1497L78.4795 40.6629C78.8094 41.3112 79.332 41.4192 80.0194 41.1222C80.6795 40.771 81.7522 40.3388 82.9348 40.3388C84.3647 40.3388 85.5476 40.9601 85.5476 42.7698V43.094H84.9699C81.8346 43.094 76.7742 43.7691 76.7742 47.7937ZM80.2396 47.4966C80.2396 45.4437 83.2373 45.1737 84.9973 45.1737H85.575V45.6869C85.575 47.3615 84.3098 49.3062 82.3571 49.3062C80.9545 49.3062 80.2396 48.415 80.2396 47.4966ZM92.8906 46.6864C92.8906 50.4137 95.8608 51.7373 98.3636 51.7373C99.3262 51.7373 99.7935 51.4131 99.7935 50.6028V49.7655C99.7935 49.0091 99.4911 48.7393 98.6384 48.6581C97.676 48.5499 96.3833 48.1448 96.3833 46.0919V40.7441H98.4458C99.1611 40.7441 99.5735 40.3658 99.5735 39.6096V39.1504C99.5735 38.421 99.1611 38.0159 98.4184 38.0159H96.3833V35.2069C96.3833 34.4775 95.9707 34.0724 95.2282 34.0724H94.128C93.3856 34.0724 92.9732 34.4775 92.9732 35.2069V38.0159H92.1755C91.4055 38.0159 91.0204 38.421 91.0204 39.1504V39.6096C91.0204 40.3658 91.4055 40.7441 92.1481 40.7441H92.8906V46.6864ZM103.259 35.4768H104.469C105.212 35.4768 105.624 35.0988 105.624 34.3696V33.5593C105.624 32.8298 105.212 32.4248 104.469 32.4248H103.259C102.516 32.4248 102.131 32.8298 102.131 33.5593V34.3696C102.131 35.0988 102.516 35.4768 103.259 35.4768ZM102.131 50.4677C102.131 51.2241 102.516 51.6022 103.259 51.6022H104.469C105.212 51.6022 105.596 51.2241 105.596 50.4677V38.9613C105.596 38.232 105.212 37.8269 104.469 37.8269H103.259C102.516 37.8269 102.131 38.232 102.131 38.9613V50.4677ZM112.115 50.6836C112.307 51.3319 112.747 51.6022 113.407 51.6022H115.607C116.267 51.6022 116.68 51.3319 116.9 50.6836L121.135 39.1234C121.41 38.3401 121.053 37.8269 120.2 37.8269H118.907C118.248 37.8269 117.808 38.1241 117.615 38.7723L115.002 46.3621C114.727 47.1725 114.507 48.442 114.507 48.442H114.452C114.452 48.442 114.205 47.1725 113.93 46.3621L111.317 38.7723C111.125 38.1241 110.684 37.8269 110.024 37.8269H108.732C107.879 37.8269 107.549 38.3401 107.824 39.1234L112.115 50.6836ZM122.428 44.7145C122.428 48.631 125.316 51.9263 129.963 51.9263C132.164 51.9263 133.814 51.116 134.721 50.5489C135.326 50.1974 135.436 49.6574 135.106 49.0361L134.776 48.496C134.419 47.8747 133.924 47.7937 133.236 48.1179C132.576 48.523 131.504 49.0091 130.211 49.0091C128.093 49.0091 126.223 47.7126 126.003 45.2278H134.556C135.244 45.2278 135.766 44.6605 135.766 44.0663C135.766 40.2849 133.538 37.5029 129.551 37.5029C125.343 37.5029 122.428 40.4739 122.428 44.7145ZM126.085 43.1478C126.415 41.3112 127.681 40.0958 129.468 40.0958C131.063 40.0958 132.246 41.2303 132.301 43.1478H126.085Z" fill="#996699"/>
<path fill-rule="evenodd" clip-rule="evenodd" d="M172.516 27.1013C173.458 28.3783 174.943 32.0587 174.994 34.4516C175.078 38.3638 173.58 39.4217 172.446 42.1537C185.837 41.2241 204.401 38.947 218.605 37.4562C223.876 36.903 229.017 36.9835 231.167 33.2407C232.404 31.0879 231.959 28.7742 230.247 27.5607C228.427 26.2705 225.054 26.6363 222.539 26.6455C216.913 26.6657 211.286 26.7276 205.66 26.78C200.034 26.8325 194.407 26.8988 188.781 26.9503C183.777 26.9958 177.325 26.6822 172.516 27.1013Z" fill="#FF6699"/>
<mask id="mask0_32_16771" style="mask-type:luminance" maskUnits="userSpaceOnUse" x="172" y="26" width="60" height="17">
<path d="M172.516 27.1013C173.458 28.3783 174.943 32.0587 174.994 34.4516C175.078 38.3638 173.58 39.4217 172.446 42.1537C185.837 41.2241 204.401 38.947 218.605 37.4562C223.876 36.903 229.017 36.9835 231.167 33.2407C232.404 31.0879 231.959 28.7742 230.247 27.5607C228.427 26.2705 225.054 26.6363 222.539 26.6455C216.913 26.6657 211.286 26.7276 205.66 26.78C200.034 26.8325 194.407 26.8988 188.781 26.9503C183.777 26.9958 177.325 26.6822 172.516 27.1013Z" fill="white"/>
</mask>
<g mask="url(#mask0_32_16771)">
<path fill-rule="evenodd" clip-rule="evenodd" d="M169.07 28.4055L221.123 29.5812C221.851 29.5974 222.472 29.47 222.492 29.3013C222.511 29.1371 221.95 28.9969 221.255 28.9857L170.186 28.1707C170.056 28.1686 169.704 28.2185 169.4 28.2825C169.091 28.3471 168.941 28.4029 169.07 28.4055Z" fill="#FF8FB4"/>
<path fill-rule="evenodd" clip-rule="evenodd" d="M169.326 38.1861L221.296 35.0844C222.024 35.0407 222.632 34.8627 222.637 34.6929C222.642 34.5276 222.071 34.434 221.378 34.48L170.418 37.8604C170.289 37.8689 169.942 37.9479 169.644 38.0365C169.342 38.1261 169.198 38.1938 169.326 38.1861Z" fill="#FF8FB4"/>
<path fill-rule="evenodd" clip-rule="evenodd" d="M169.075 32.9194L221.136 32.1901C221.865 32.1796 222.48 32.0294 222.494 31.86C222.507 31.6953 221.941 31.5757 221.246 31.5901L170.182 32.6439C170.052 32.6466 169.701 32.7096 169.4 32.7843C169.094 32.8601 168.946 32.9214 169.075 32.9194Z" fill="#FF8FB4"/>
</g>
<path fill-rule="evenodd" clip-rule="evenodd" d="M231.872 51.5933C228.828 47.6088 227.809 49.1545 229.933 40.4612C220.811 40.5654 200.551 42.4643 189.545 43.2697C185.795 43.5443 179.413 42.8642 179.5 47.0328C179.541 48.9866 181.151 50.5792 182.555 51.1592C184.978 52.161 228.52 51.6378 231.872 51.5933Z" fill="#996699"/>
<mask id="mask1_32_16771" style="mask-type:luminance" maskUnits="userSpaceOnUse" x="179" y="40" width="53" height="12">
<path d="M231.872 51.5933C228.828 47.6088 227.809 49.1545 229.933 40.4612C220.811 40.5654 200.551 42.4643 189.545 43.2697C185.795 43.5443 179.413 42.8642 179.5 47.0328C179.541 48.9866 181.151 50.5792 182.555 51.1592C184.978 52.161 228.52 51.6378 231.872 51.5933Z" fill="white"/>
</mask>
<g mask="url(#mask1_32_16771)">
<path fill-rule="evenodd" clip-rule="evenodd" d="M231.062 42.6086L188.549 44.8587C187.954 44.89 187.443 44.8013 187.423 44.6637C187.403 44.5301 187.858 44.4014 188.426 44.3754L230.145 42.4442C230.251 42.4392 230.54 42.4714 230.79 42.5161C231.044 42.5611 231.168 42.603 231.062 42.6086Z" fill="#BD93BD"/>
<path fill-rule="evenodd" clip-rule="evenodd" d="M231.105 50.6088L188.548 49.3607C187.953 49.3432 187.452 49.2126 187.443 49.0741C187.434 48.9392 187.899 48.8486 188.467 48.869L230.204 50.3697C230.31 50.3735 230.596 50.4291 230.841 50.4941C231.09 50.56 231.21 50.6117 231.105 50.6088Z" fill="#BD93BD"/>
<path fill-rule="evenodd" clip-rule="evenodd" d="M231.174 46.2979L188.605 46.9911C188.009 47.0008 187.502 46.8934 187.487 46.7553C187.472 46.6208 187.932 46.5091 188.5 46.5036L230.263 46.1001C230.369 46.099 230.657 46.1418 230.906 46.1955C231.158 46.2501 231.28 46.2962 231.174 46.2979Z" fill="#BD93BD"/>
</g>
<path fill-rule="evenodd" clip-rule="evenodd" d="M175.158 15.745C180.201 20.094 174.22 24.21 173.699 24.8039L175.486 24.8816C191.929 25.1819 211.749 24.8644 228.585 24.8644H227.882C230.267 24.8644 230.884 24.6486 231.841 23.0127C232.403 17.5346 225.106 18.2948 220.489 17.9603C215.303 17.5841 210.136 17.2172 204.975 16.8465C194.983 16.1285 183.83 14.8583 173.941 14.6861L175.158 15.745Z" fill="#660066"/>
<mask id="mask2_32_16771" style="mask-type:luminance" maskUnits="userSpaceOnUse" x="173" y="14" width="59" height="12">
<path d="M175.158 15.745C180.201 20.094 174.22 24.21 173.699 24.8039L175.486 24.8816C191.929 25.1819 211.749 24.8644 228.585 24.8644H227.882C230.267 24.8644 230.884 24.6486 231.841 23.0127C232.403 17.5346 225.106 18.2948 220.489 17.9603C215.303 17.5841 210.136 17.2172 204.975 16.8465C194.983 16.1285 183.83 14.8583 173.941 14.6861L175.158 15.745Z" fill="white"/>
</mask>
<g mask="url(#mask2_32_16771)">
<path fill-rule="evenodd" clip-rule="evenodd" d="M173.709 15.73L219.389 19.8599C220.028 19.9175 220.583 19.8556 220.612 19.7242C220.641 19.5964 220.158 19.4517 219.548 19.4003L174.707 15.6143C174.592 15.6048 174.279 15.6222 174.007 15.6536C173.731 15.6853 173.595 15.7198 173.709 15.73Z" fill="#9E299E"/>
<path fill-rule="evenodd" clip-rule="evenodd" d="M173.234 23.4288L219.148 24.1936C219.79 24.2039 220.337 24.1017 220.354 23.9686C220.371 23.8391 219.875 23.7305 219.262 23.7237L174.217 23.2402C174.103 23.2389 173.792 23.2794 173.524 23.3308C173.252 23.3827 173.12 23.4269 173.234 23.4288Z" fill="#9E299E"/>
<path fill-rule="evenodd" clip-rule="evenodd" d="M173.391 19.2763L219.214 21.9099C219.856 21.9468 220.407 21.8666 220.431 21.7343C220.455 21.6059 219.966 21.477 219.354 21.4455L174.383 19.1279C174.268 19.1221 173.956 19.1498 173.685 19.1902C173.411 19.2307 173.277 19.2697 173.391 19.2763Z" fill="#9E299E"/>
</g>
<path fill-rule="evenodd" clip-rule="evenodd" d="M203.565 14.6861C202.027 11.3237 203.532 10.1881 204.898 7.82733C200.313 7.9439 195.732 8.17009 191.22 8.4528C188.751 8.60709 179.518 7.78449 179.499 10.6972C179.477 14.0865 187.204 13.6222 190.342 13.8194C194.625 14.0886 199.316 14.6232 203.565 14.6861Z" fill="#FF9999"/>
<mask id="mask3_32_16771" style="mask-type:luminance" maskUnits="userSpaceOnUse" x="179" y="7" width="26" height="8">
<path d="M203.565 14.6861C202.027 11.3237 203.532 10.1881 204.898 7.82733C200.313 7.9439 195.732 8.17009 191.22 8.4528C188.751 8.60709 179.518 7.78449 179.499 10.6972C179.477 14.0865 187.204 13.6222 190.342 13.8194C194.625 14.0886 199.316 14.6232 203.565 14.6861Z" fill="white"/>
</mask>
<g mask="url(#mask3_32_16771)">
<path fill-rule="evenodd" clip-rule="evenodd" d="M206.43 9.47231L185.494 9.94507C185.201 9.95179 184.951 9.90028 184.943 9.83241C184.936 9.76637 185.161 9.7101 185.441 9.70558L205.981 9.37771C206.033 9.37686 206.175 9.39712 206.298 9.42275C206.422 9.44875 206.482 9.47109 206.43 9.47231Z" fill="#FFD9D9"/>
<path fill-rule="evenodd" clip-rule="evenodd" d="M206.328 13.406L185.425 12.1586C185.133 12.141 184.888 12.0694 184.886 12.001C184.884 11.9346 185.114 11.897 185.393 11.9154L205.889 13.275C205.941 13.2786 206.08 13.3102 206.2 13.3458C206.322 13.3819 206.38 13.4092 206.328 13.406Z" fill="#FFD9D9"/>
<path fill-rule="evenodd" clip-rule="evenodd" d="M206.429 11.2877L185.489 10.9945C185.196 10.9902 184.949 10.9299 184.943 10.8615C184.938 10.7954 185.166 10.7474 185.445 10.7532L205.984 11.1771C206.036 11.1781 206.177 11.2033 206.298 11.2335C206.421 11.2639 206.481 11.2885 206.429 11.2877Z" fill="#FFD9D9"/>
</g>
</g>
<defs>
<clipPath id="clip0_32_16771">
<rect width="231.92" height="52" fill="white"/>
</clipPath>
</defs>
</svg>
